{
  "accessors": [
    {
      "bufferView": 2,
      "componentType": 5126,
      "count": 9986,
      "max": [
        0.5885459780693054,
        1.2265030145645142,
        2.8552279472351074
      ],
      "min": [
        -1.5657049417495728,
        -1.2265030145645142,
        0.02259800024330616
      ],
      "type": "VEC3"
    },
    {
      "bufferView": 2,
      "byteOffset": 119832,
      "componentType": 5126,
      "count": 9986,
      "max": [
        1.0,
        1.0,
        1.0
      ],
      "min": [
        -1.0,
        -1.0,
        -1.0
      ],
      "type": "VEC3"
    },
    {
      "bufferView": 3,
      "componentType": 5126,
      "count": 9986,
      "max": [
        0.999991774559021,
        0.9995482563972473,
        0.9997169971466064,
        1.0
      ],
      "min": [
        -0.9998705387115479,
        -0.9993771910667419,
        -0.9998853802680969,
        -1.0
      ],
      "type": "VEC4"
    },
    {
      "bufferView": 1,
      "componentType": 5126,
      "count": 9986,
      "max": [
        0.9999989867210388,
        0.999334990978241
      ],
      "min": [
        0.0,
        0.0
      ],
      "type": "VEC2"
    },
    {
      "bufferView": 0,
      "componentType": 5125,
      "count": 54552,
      "type": "SCALAR"
    },
    {
      "bufferView": 2,
      "byteOffset": 239664,
      "componentType": 5126,
      "count": 998,
      "max": [
        0.0741019994020462,
        0.6163300275802612,
        2.7313969135284424
      ],
      "min": [
        -0.09358999878168106,
        -0.6163300275802612,
        2.3631908893585205
      ],
      "type": "VEC3"
    },
    {
      "bufferView": 2,
      "byteOffset": 251640,
      "componentType": 5126,
      "count": 998,
      "max": [
        0.9999983310699463,
        0.9993599057197571,
        0.998515248298645
      ],
      "min": [
        -0.9999931454658508,
        -0.9993599057197571,
        -0.9573823809623718
      ],
      "type": "VEC3"
    },
    {
      "bufferView": 3,
      "byteOffset": 159776,
      "componentType": 5126,
      "count": 998,
      "max": [
        0.9919999241828918,
        0.999045193195343,
        0.5598099231719971,
        1.0
      ],
      "min": [
        -0.9577317833900452,
        -0.9992307424545288,
        -0.9494978189468384,
        1.0
      ],
      "type": "VEC4"
    },
    {
      "bufferView": 1,
      "byteOffset": 79888,
      "componentType": 5126,
      "count": 998,
      "max": [
        0.9971219897270203,
        0.330826997756958
      ],
      "min": [
        0.0,
        0.0
      ],
      "type": "VEC2"
    },
    {
      "bufferView": 0,
      "byteOffset": 218208,
      "componentType": 5125,
      "count": 5760,
      "type": "SCALAR"
    }
  ],
  "asset": {
    "extras": {
      "author": "Paper Bandit (https://sketchfab.com/paperbandit)",
      "license": "CC-BY-4.0 (http://creativecommons.org/licenses/by/4.0/)",
      "source": "https://sketchfab.com/3d-models/neco-arc-8bcd385adec44fdf8ebfc63bcdf5b28c",
      "title": "Neco-arc"
    },
    "generator": "Sketchfab-12.64.0",
    "version": "2.0"
  },
  "bufferViews": [
    {
      "buffer": 0,
      "byteLength": 241248,
      "name": "floatBufferViews",
      "target": 34963
    },
    {
      "buffer": 0,
      "byteLength": 87872,
      "byteOffset": 241248,
      "byteStride": 8,
      "name": "floatBufferViews",
      "target": 34962
    },
    {
      "buffer": 0,
      "byteLength": 263616,
      "byteOffset": 329120,
      "byteStride": 12,
      "name": "floatBufferViews",
      "target": 34962
    },
    {
      "buffer": 0,
      "byteLength": 175744,
      "byteOffset": 592736,
      "byteStride": 16,
      "name": "floatBufferViews",
      "target": 34962
    }
  ],
  "buffers": [
    {
      "byteLength": 768480,
      "uri": "scene.bin"
    }
  ],
  "images": [
    {
      "uri": "textures/None_baseColor.png"
    },
    {
      "uri": "textures/None_metallicRoughness.png"
    },
    {
      "uri": "textures/None_normal.png"
    }
  ],
  "materials": [
    {
      "doubleSided": true,
      "name": "None",
      "normalTexture": {
        "index": 2
      },
      "pbrMetallicRoughness": {
        "baseColorTexture": {
          "index": 0
        },
        "metallicRoughnessTexture": {
          "index": 1
        }
      }
    }
  ],
  "meshes": [
    {
      "name": "Object_0",
      "primitives": [
        {
          "attributes": {
            "NORMAL": 1,
            "POSITION": 0,
            "TANGENT": 2,
            "TEXCOORD_0": 3
          },
          "indices": 4,
          "material": 0,
          "mode": 4
        }
      ]
    },
    {
      "name": "Object_1",
      "primitives": [
        {
          "attributes": {
            "NORMAL": 6,
            "POSITION": 5,
            "TANGENT": 7,
            "TEXCOORD_0": 8
          },
          "indices": 9,
          "material": 0,
          "mode": 4
        }
      ]
    }
  ],
  "nodes": [
    {
      "children": [
        1
      ],
      "matrix": [
        1.0,
        0.0,
        0.0,
        0.0,
        0.0,
        2.220446049250313e-16,
        -1.0,
        0.0,
        0.0,
        1.0,
        2.220446049250313e-16,
        0.0,
        0.0,
        0.0,
        0.0,
        1.0
      ],
      "name": "Sketchfab_model"
    },
    {
      "children": [
        2,
        3
      ],
      "name": "PBR - Metallic Roughness.obj.cleaner.materialmerger.gles"
    },
    {
      "mesh": 0,
      "name": "Object_2"
    },
    {
      "mesh": 1,
      "name": "Object_3"
    }
  ],
  "samplers": [
    {
      "magFilter": 9729,
      "minFilter": 9987,
      "wrapS": 10497,
      "wrapT": 10497
    }
  ],
  "scene": 0,
  "scenes": [
    {
      "name": "Sketchfab_Scene",
      "nodes": [
        0
      ]
    }
  ],
  "textures": [
    {
      "sampler": 0,
      "source": 0
    },
    {
      "sampler": 0,
      "source": 1
    },
    {
      "sampler": 0,
      "source": 2
    }
  ]
}
